<svg id="Camada_1" data-name="Camada 1" xmlns="http://www.w3.org/2000/svg" viewBox="0 0 349.76 500"><defs><style>.cls-1{fill:#263238;}.cls-2{fill:#7fa391;}.cls-3{fill:none;stroke:#7fa391;stroke-linecap:round;stroke-linejoin:round;}</style></defs><path class="cls-1" d="M311,66.62c34.08,0,65.91,13.45,93,36.76C376.4,68.11,341.16,46.93,302.75,46.93c-62.31,0-116.26,55.72-142.67,137C191.59,113.47,247.38,66.62,311,66.62Z" transform="translate(-74.48)"/><path class="cls-1" d="M311.84,425.43C240,424,180.26,367.47,161.62,291c7,86.84,67,155.23,141.5,156.75,49.52,1,93.86-27.81,121.12-72.65C394.77,407.06,355.12,426.31,311.84,425.43Z" transform="translate(-74.48)"/><path class="cls-2" d="M301.84,467.79C210,467.79,135.5,370.28,135.5,250S210,32.21,301.84,32.21c38.64,0,74.17,17.3,102.4,46.23C369.43,30.17,320.14,0,265.42,0,160,0,74.48,111.93,74.48,250S160,500,265.42,500c54.72,0,104-30.17,138.83-78.44C376,450.49,340.48,467.79,301.84,467.79Z" transform="translate(-74.48)"/><path class="cls-2" d="M419.42,125.74,293.83,263.52,292,259.31,379.6,261a.84.84,0,0,1,0,1.67L292,264.31a2.48,2.48,0,0,1-1.85-4.18l0,0,128.35-135.2a.63.63,0,0,1,.87,0A.61.61,0,0,1,419.42,125.74Z" transform="translate(-74.48)"/><line class="cls-3" x1="213.91" y1="261.16" x2="125.33" y2="176.51"/><path class="cls-2" d="M308.73,261.16a20.34,20.34,0,1,1-20.34-20.35A20.33,20.33,0,0,1,308.73,261.16Z" transform="translate(-74.48)"/></svg>